{
  "asset": {
    "version": "2.0",
    "generator": "THREE.GLTFExporter"
  },
  "scenes": [
    {
      "nodes": [
        0
      ],
      "name": "AuxScene"
    }
  ],
  "scene": 0,
  "nodes": [
    {
      "mesh": 0
    }
  ],
  "bufferViews": [
    {
      "buffer": 0,
      "byteOffset": 0,
      "byteLength": 92880,
      "target": 34962,
      "byteStride": 12
    },
    {
      "buffer": 0,
      "byteOffset": 92880,
      "byteLength": 92880,
      "target": 34962,
      "byteStride": 12
    },
    {
      "buffer": 0,
      "byteOffset": 185760,
      "byteLength": 92880,
      "target": 34962,
      "byteStride": 12
    },
    {
      "buffer": 0,
      "byteOffset": 278640,
      "byteLength": 15480,
      "target": 34963
    }
  ],
  "buffers": [
    {
      "uri": "ArcDeedLogo_data.bin",
      "byteLength": 294120
    }
  ],
  "accessors": [
    {
      "bufferView": 0,
      "componentType": 5126,
      "count": 7740,
      "max": [
        -25.805522918701172,
        70.68058776855469,
        54.40919494628906
      ],
      "min": [
        -35.626060485839844,
        4.1241350173950195,
        5.2068095207214355
      ],
      "type": "VEC3"
    },
    {
      "bufferView": 1,
      "componentType": 5126,
      "count": 7740,
      "max": [
        1,
        1,
        0.9999030828475952
      ],
      "min": [
        -1,
        -0.9996763467788696,
        -1
      ],
      "type": "VEC3"
    },
    {
      "bufferView": 2,
      "componentType": 5126,
      "count": 7740,
      "max": [
        0.9032257795333862,
        0.6774193644523621,
        0.5806451439857483
      ],
      "min": [
        0.16129031777381897,
        0.22580644488334656,
        0.12903225421905518
      ],
      "type": "VEC3"
    },
    {
      "bufferView": 3,
      "componentType": 5123,
      "count": 7740,
      "max": [
        7739
      ],
      "min": [
        0
      ],
      "type": "SCALAR"
    }
  ],
  "materials": [
    {
      "pbrMetallicRoughness": {
        "baseColorFactor": [
          0.8,
          0.8,
          0.8,
          1
        ],
        "metallicFactor": 0.5,
        "roughnessFactor": 0.5
      }
    }
  ],
  "meshes": [
    {
      "primitives": [
        {
          "mode": 4,
          "attributes": {
            "POSITION": 0,
            "NORMAL": 1,
            "COLOR_0": 2
          },
          "indices": 3,
          "material": 0
        }
      ]
    }
  ]
}