<svg width="366" height="184" viewBox="0 0 366 184" fill="none" xmlns="http://www.w3.org/2000/svg">
<g clip-path="url(#clip0)">
<path d="M227.906 49.7749H182.289V57.8566H227.906V49.7749Z" fill="#222222" stroke="#67AAD8" stroke-miterlimit="10"/>
<path d="M222.977 52.0483H196.303V53.8672H222.977V52.0483Z" fill="#67AAD8"/>
<path d="M113.702 87.6616L107.336 95.8467L154.927 175.568L162.048 169.357L113.702 87.6616Z" fill="#222222" stroke="#67AAD8" stroke-miterlimit="10"/>
<path d="M289.95 0.390625H255.277V10.038H289.95V0.390625Z" fill="white"/>
<path d="M136.408 40.0809L107.471 81.7916L164.559 177.201V80.2259" stroke="#67AAD8" stroke-miterlimit="10"/>
<path d="M235.728 56.5027H175.508V178.503H235.728V147.401" stroke="white" stroke-miterlimit="10"/>
<path d="M286.038 146.698H195.32V179.542H286.038V146.698Z" fill="#222222" stroke="#67AAD8" stroke-miterlimit="10"/>
<path d="M302.2 16.6212H242.766V178.503H302.2V16.6212Z" fill="#222222" stroke="#67AAD8" stroke-miterlimit="10"/>
<path d="M296.987 8.48785H249.541V16.8279H296.987V8.48785Z" fill="#222222" stroke="#67AAD8" stroke-miterlimit="10"/>
<path d="M113.33 80.8408L137.002 46.845" stroke="white" stroke-miterlimit="10"/>
<path d="M116.947 87.3879L140.619 53.392" stroke="white" stroke-miterlimit="10"/>
<path d="M120.564 93.9347L144.236 59.9389" stroke="white" stroke-miterlimit="10"/>
<path d="M124.182 100.482L147.858 66.4859" stroke="white" stroke-miterlimit="10"/>
<path d="M127.799 107.029L151.476 73.0329" stroke="white" stroke-miterlimit="10"/>
<path d="M131.416 113.571L155.093 79.5747" stroke="white" stroke-miterlimit="10"/>
<path d="M135.033 120.118L158.71 86.1218" stroke="white" stroke-miterlimit="10"/>
<path d="M138.65 126.665L162.327 92.6688" stroke="white" stroke-miterlimit="10"/>
<path d="M142.268 133.212L160.916 106.435" stroke="white" stroke-miterlimit="10"/>
<path d="M145.885 139.759L160.389 118.934" stroke="white" stroke-miterlimit="10"/>
<path d="M149.502 146.301L161.294 129.372" stroke="white" stroke-miterlimit="10"/>
<path d="M153.119 152.847L160.596 142.11" stroke="white" stroke-miterlimit="10"/>
<path d="M156.736 159.395L162.085 151.716" stroke="white" stroke-miterlimit="10"/>
<path d="M78.7037 174.282L74.3786 111.984C74.1874 109.23 71.8983 107.096 69.1389 107.096C66.3796 107.096 64.0905 109.23 63.8993 111.984L59.5742 174.282" stroke="#67AAD8" stroke-miterlimit="10"/>
<path d="M68.9277 115.839C70.426 115.839 71.6405 114.625 71.6405 113.126C71.6405 111.628 70.426 110.413 68.9277 110.413C67.4294 110.413 66.2148 111.628 66.2148 113.126C66.2148 114.625 67.4294 115.839 68.9277 115.839Z" fill="#67AAD8"/>
<path d="M74.6621 116.495C74.6621 116.495 94.639 151.37 146.447 165.585" stroke="#67AAD8" stroke-miterlimit="10"/>
<path d="M56.9949 166.097H2.60352V169.455H56.9949V166.097Z" fill="#67AAD8"/>
<path d="M135.766 166.097H81.375V169.455H135.766V166.097Z" fill="#67AAD8"/>
<path d="M159.61 180.074H105.725V91.2271L159.61 180.074Z" fill="#222222" stroke="#67AAD8" stroke-miterlimit="10"/>
<path d="M66.2911 121.523L63.0254 173.873" stroke="white" stroke-miterlimit="10"/>
<path d="M75.3605 173.574L72.0586 121.353" stroke="white" stroke-miterlimit="10"/>
<path d="M262.262 21.8195H247.711V36.3707H262.262V21.8195Z" fill="#67AAD8"/>
<path d="M279.93 21.8195H265.379V36.3707H279.93V21.8195Z" fill="#67AAD8"/>
<path d="M297.596 21.8195H283.045V36.3707H297.596V21.8195Z" fill="#67AAD8"/>
<path d="M262.262 40.1791H247.711V54.7303H262.262V40.1791Z" fill="#67AAD8"/>
<path d="M279.93 40.1791H265.379V54.7303H279.93V40.1791Z" fill="#67AAD8"/>
<path d="M297.596 40.1791H283.045V54.7303H297.596V40.1791Z" fill="#67AAD8"/>
<path d="M262.262 58.5387H247.711V73.0899H262.262V58.5387Z" fill="#67AAD8"/>
<path d="M279.93 58.5387H265.379V73.0899H279.93V58.5387Z" fill="#67AAD8"/>
<path d="M297.596 58.5387H283.045V73.0899H297.596V58.5387Z" fill="#67AAD8"/>
<path d="M262.262 76.9034H247.711V91.4546H262.262V76.9034Z" fill="#67AAD8"/>
<path d="M279.93 76.9034H265.379V91.4546H279.93V76.9034Z" fill="#67AAD8"/>
<path d="M297.596 76.9034H283.045V91.4546H297.596V76.9034Z" fill="#67AAD8"/>
<path d="M262.262 95.2628H247.711V109.814H262.262V95.2628Z" fill="#67AAD8"/>
<path d="M279.93 95.2628H265.379V109.814H279.93V95.2628Z" fill="#67AAD8"/>
<path d="M297.596 95.2628H283.045V109.814H297.596V95.2628Z" fill="#67AAD8"/>
<path d="M262.262 113.622H247.711V128.174H262.262V113.622Z" fill="#67AAD8"/>
<path d="M279.93 113.622H265.379V128.174H279.93V113.622Z" fill="#67AAD8"/>
<path d="M297.596 113.622H283.045V128.174H297.596V113.622Z" fill="#67AAD8"/>
<path d="M365.226 128.711H239.428V179.806H365.226V128.711Z" fill="#222222" stroke="white" stroke-miterlimit="10"/>
<path d="M189.869 69.9429H169.014V182.932H189.869V69.9429Z" fill="#222222" stroke="#67AAD8" stroke-miterlimit="10"/>
<path d="M179.12 74.5264C189.594 74.5264 198.084 66.0359 198.084 55.5623C198.084 45.0887 189.594 36.5982 179.12 36.5982C168.647 36.5982 160.156 45.0887 160.156 55.5623C160.156 66.0359 168.647 74.5264 179.12 74.5264Z" fill="#222222" stroke="white" stroke-miterlimit="10"/>
<path d="M179.121 71.5603C187.957 71.5603 195.119 64.3977 195.119 55.5622C195.119 46.7267 187.957 39.5641 179.121 39.5641C170.286 39.5641 163.123 46.7267 163.123 55.5622C163.123 64.3977 170.286 71.5603 179.121 71.5603Z" fill="#222222"/>
<path d="M179.12 66.8993C185.382 66.8993 190.457 61.8235 190.457 55.5622C190.457 49.3009 185.382 44.2251 179.12 44.2251C172.859 44.2251 167.783 49.3009 167.783 55.5622C167.783 61.8235 172.859 66.8993 179.12 66.8993Z" fill="#222222" stroke="white" stroke-miterlimit="10"/>
<path d="M192.726 176.142H166.15V183.665H192.726V176.142Z" fill="#222222" stroke="white" stroke-miterlimit="10"/>
<path d="M314.245 176.059H305.254V158.899C305.254 157.736 306.2 156.79 307.362 156.79H312.137C313.299 156.79 314.245 157.736 314.245 158.899V176.059V176.059Z" stroke="white" stroke-miterlimit="10"/>
<path d="M298.517 176.059H289.525V158.899C289.525 157.736 290.471 156.79 291.634 156.79H296.408C297.571 156.79 298.517 157.736 298.517 158.899V176.059V176.059Z" stroke="white" stroke-miterlimit="10"/>
<path d="M236.1 152.253H201.805V173.041H236.1V152.253Z" fill="white"/>
<path d="M235.652 64.7859L199.977 140.301H235.311L235.652 64.7859Z" fill="white"/>
<path d="M41.7253 163.859H33.6074V163.761C33.6074 161.518 35.4263 159.705 37.6638 159.705C39.9064 159.705 41.7201 161.523 41.7201 163.761V163.859H41.7253Z" fill="#222222" stroke="white" stroke-miterlimit="10"/>
<path d="M54.4577 163.859H46.3398V163.761C46.3398 161.518 48.1587 159.705 50.3962 159.705C52.6388 159.705 54.4526 161.523 54.4526 163.761V163.859H54.4577Z" fill="#222222" stroke="white" stroke-miterlimit="10"/>
<path d="M95.0007 163.859H86.8828V163.761C86.8828 161.518 88.7017 159.705 90.9392 159.705C93.1818 159.705 94.9955 161.523 94.9955 163.761V163.859H95.0007Z" fill="#222222" stroke="white" stroke-miterlimit="10"/>
<path d="M0.0664062 160.8C0.0664062 160.8 42.5987 149.758 63.5264 116.294" stroke="#67AAD8" stroke-miterlimit="10"/>
<path d="M87.8386 174.767H50.5977V177.883H87.8386V174.767Z" fill="#67AAD8"/>
<path d="M297.576 96.6166H306.03V85.1399C306.03 84.0445 305.141 83.1609 304.051 83.1609H299.56C298.465 83.1609 297.581 84.0496 297.581 85.1399V96.6166H297.576Z" fill="white"/>
<path d="M310.933 97.0766H292.672V120.004H310.933V97.0766Z" fill="#222222" stroke="white" stroke-miterlimit="10"/>
<path d="M313.524 93.2527H290.09V98.203H313.524V93.2527Z" fill="#222222" stroke="white" stroke-miterlimit="10"/>
<path d="M325.138 123.508L301.802 106.497L279.929 123.508L279.779 179.547H325.138V123.508Z" fill="#222222" stroke="white" stroke-miterlimit="10"/>
<path d="M243.377 134.126H274.557" stroke="white" stroke-miterlimit="10"/>
<path d="M329.117 134.126H360.297" stroke="white" stroke-miterlimit="10"/>
<path d="M286.58 124.882H317.76" stroke="white" stroke-miterlimit="10"/>
<path d="M239.861 173.734H364.482" stroke="white" stroke-miterlimit="10"/>
<path d="M245.246 178.188C246.102 178.188 246.796 177.494 246.796 176.638C246.796 175.782 246.102 175.088 245.246 175.088C244.389 175.088 243.695 175.782 243.695 176.638C243.695 177.494 244.389 178.188 245.246 178.188Z" fill="#67AAD8"/>
<path d="M251.101 178.188C251.957 178.188 252.651 177.494 252.651 176.638C252.651 175.782 251.957 175.088 251.101 175.088C250.245 175.088 249.551 175.782 249.551 176.638C249.551 177.494 250.245 178.188 251.101 178.188Z" fill="#67AAD8"/>
<path d="M256.96 178.188C257.817 178.188 258.511 177.494 258.511 176.638C258.511 175.782 257.817 175.088 256.96 175.088C256.104 175.088 255.41 175.782 255.41 176.638C255.41 177.494 256.104 178.188 256.96 178.188Z" fill="#67AAD8"/>
<path d="M262.816 178.188C263.672 178.188 264.366 177.494 264.366 176.638C264.366 175.782 263.672 175.088 262.816 175.088C261.96 175.088 261.266 175.782 261.266 176.638C261.266 177.494 261.96 178.188 262.816 178.188Z" fill="#67AAD8"/>
<path d="M268.675 178.188C269.531 178.188 270.225 177.494 270.225 176.638C270.225 175.782 269.531 175.088 268.675 175.088C267.819 175.088 267.125 175.782 267.125 176.638C267.125 177.494 267.819 178.188 268.675 178.188Z" fill="#67AAD8"/>
<path d="M274.531 178.188C275.387 178.188 276.081 177.494 276.081 176.638C276.081 175.782 275.387 175.088 274.531 175.088C273.675 175.088 272.98 175.782 272.98 176.638C272.98 177.494 273.675 178.188 274.531 178.188Z" fill="#67AAD8"/>
<path d="M285.201 178.188C286.057 178.188 286.751 177.494 286.751 176.638C286.751 175.782 286.057 175.088 285.201 175.088C284.344 175.088 283.65 175.782 283.65 176.638C283.65 177.494 284.344 178.188 285.201 178.188Z" fill="#67AAD8"/>
<path d="M301.804 90.4004C302.66 90.4004 303.354 89.7063 303.354 88.8502C303.354 87.994 302.66 87.3 301.804 87.3C300.948 87.3 300.254 87.994 300.254 88.8502C300.254 89.7063 300.948 90.4004 301.804 90.4004Z" fill="#67AAD8"/>
<path d="M291.06 178.188C291.916 178.188 292.61 177.494 292.61 176.638C292.61 175.782 291.916 175.088 291.06 175.088C290.204 175.088 289.51 175.782 289.51 176.638C289.51 177.494 290.204 178.188 291.06 178.188Z" fill="#67AAD8"/>
<path d="M296.915 178.188C297.772 178.188 298.466 177.494 298.466 176.638C298.466 175.782 297.772 175.088 296.915 175.088C296.059 175.088 295.365 175.782 295.365 176.638C295.365 177.494 296.059 178.188 296.915 178.188Z" fill="#67AAD8"/>
<path d="M302.775 178.188C303.631 178.188 304.325 177.494 304.325 176.638C304.325 175.782 303.631 175.088 302.775 175.088C301.919 175.088 301.225 175.782 301.225 176.638C301.225 177.494 301.919 178.188 302.775 178.188Z" fill="#67AAD8"/>
<path d="M308.63 178.188C309.486 178.188 310.181 177.494 310.181 176.638C310.181 175.782 309.486 175.088 308.63 175.088C307.774 175.088 307.08 175.782 307.08 176.638C307.08 177.494 307.774 178.188 308.63 178.188Z" fill="#67AAD8"/>
<path d="M314.49 178.188C315.346 178.188 316.04 177.494 316.04 176.638C316.04 175.782 315.346 175.088 314.49 175.088C313.634 175.088 312.939 175.782 312.939 176.638C312.939 177.494 313.634 178.188 314.49 178.188Z" fill="#67AAD8"/>
<path d="M320.343 178.188C321.199 178.188 321.893 177.494 321.893 176.638C321.893 175.782 321.199 175.088 320.343 175.088C319.487 175.088 318.793 175.782 318.793 176.638C318.793 177.494 319.487 178.188 320.343 178.188Z" fill="#67AAD8"/>
<path d="M331.015 178.188C331.871 178.188 332.565 177.494 332.565 176.638C332.565 175.782 331.871 175.088 331.015 175.088C330.159 175.088 329.465 175.782 329.465 176.638C329.465 177.494 330.159 178.188 331.015 178.188Z" fill="#67AAD8"/>
<path d="M336.874 178.188C337.731 178.188 338.425 177.494 338.425 176.638C338.425 175.782 337.731 175.088 336.874 175.088C336.018 175.088 335.324 175.782 335.324 176.638C335.324 177.494 336.018 178.188 336.874 178.188Z" fill="#67AAD8"/>
<path d="M342.728 178.188C343.584 178.188 344.278 177.494 344.278 176.638C344.278 175.782 343.584 175.088 342.728 175.088C341.872 175.088 341.178 175.782 341.178 176.638C341.178 177.494 341.872 178.188 342.728 178.188Z" fill="#67AAD8"/>
<path d="M348.587 178.188C349.443 178.188 350.137 177.494 350.137 176.638C350.137 175.782 349.443 175.088 348.587 175.088C347.731 175.088 347.037 175.782 347.037 176.638C347.037 177.494 347.731 178.188 348.587 178.188Z" fill="#67AAD8"/>
<path d="M354.443 178.188C355.299 178.188 355.993 177.494 355.993 176.638C355.993 175.782 355.299 175.088 354.443 175.088C353.587 175.088 352.893 175.782 352.893 176.638C352.893 177.494 353.587 178.188 354.443 178.188Z" fill="#67AAD8"/>
<path d="M360.644 178.188C361.5 178.188 362.194 177.494 362.194 176.638C362.194 175.782 361.5 175.088 360.644 175.088C359.788 175.088 359.094 175.782 359.094 176.638C359.094 177.494 359.788 178.188 360.644 178.188Z" fill="#67AAD8"/>
<path d="M294.332 95.5522H309.219" stroke="#67AAD8" stroke-miterlimit="10"/>
<path d="M110.059 107.489V175.729H151.444L110.059 107.489Z" fill="white"/>
<path d="M251.386 170.68H242.395V155.907C242.395 153.426 244.405 151.411 246.89 151.411C249.37 151.411 251.386 153.421 251.386 155.907V170.68Z" stroke="white" stroke-miterlimit="10"/>
<path d="M263.632 170.68H254.641V155.907C254.641 153.426 256.651 151.411 259.136 151.411C261.617 151.411 263.632 153.421 263.632 155.907V170.68Z" stroke="white" stroke-miterlimit="10"/>
<path d="M275.884 170.68H266.893V155.907C266.893 153.426 268.903 151.411 271.388 151.411C273.868 151.411 275.884 153.421 275.884 155.907V170.68V170.68Z" stroke="white" stroke-miterlimit="10"/>
<path d="M338.067 170.68H329.076V155.907C329.076 153.426 331.086 151.411 333.572 151.411C336.052 151.411 338.067 153.421 338.067 155.907V170.68V170.68Z" stroke="white" stroke-miterlimit="10"/>
<path d="M350.313 170.68H341.322V155.907C341.322 153.426 343.332 151.411 345.818 151.411C348.298 151.411 350.313 153.421 350.313 155.907V170.68V170.68Z" stroke="white" stroke-miterlimit="10"/>
<path d="M362.565 170.68H353.574V155.907C353.574 153.426 355.584 151.411 358.07 151.411C360.55 151.411 362.565 153.421 362.565 155.907V170.68V170.68Z" stroke="white" stroke-miterlimit="10"/>
<path d="M293.112 170.68H284.121V155.907C284.121 153.426 286.131 151.411 288.617 151.411C291.097 151.411 293.112 153.421 293.112 155.907V170.68V170.68Z" stroke="white" stroke-miterlimit="10"/>
<path d="M307.436 170.68H298.445V155.907C298.445 153.426 300.455 151.411 302.941 151.411C305.421 151.411 307.436 153.421 307.436 155.907V170.68V170.68Z" stroke="white" stroke-miterlimit="10"/>
<path d="M321.755 170.68H312.764V155.907C312.764 153.426 314.774 151.411 317.259 151.411C319.74 151.411 321.755 153.421 321.755 155.907V170.68V170.68Z" stroke="white" stroke-miterlimit="10"/>
<path d="M317.729 127.006H286.58V130.122H317.729V127.006Z" fill="#67AAD8"/>
<path d="M360.473 135.945H329.324V139.061H360.473V135.945Z" fill="#67AAD8"/>
<path d="M274.686 135.945H243.537V139.061H274.686V135.945Z" fill="#67AAD8"/>
<path d="M171.881 73.839H170.232V81.7192H171.881V73.839Z" fill="white"/>
<path d="M188.654 73.839H187.006V81.7192H188.654V73.839Z" fill="white"/>
<path d="M171.881 83.011H170.232V90.8912H171.881V83.011Z" fill="white"/>
<path d="M188.654 83.011H187.006V90.8912H188.654V83.011Z" fill="white"/>
<path d="M171.881 92.178H170.232V100.058H171.881V92.178Z" fill="white"/>
<path d="M188.654 92.178H187.006V100.058H188.654V92.178Z" fill="white"/>
<path d="M171.881 101.35H170.232V109.23H171.881V101.35Z" fill="white"/>
<path d="M188.654 101.35H187.006V109.23H188.654V101.35Z" fill="white"/>
<path d="M171.881 110.517H170.232V118.397H171.881V110.517Z" fill="white"/>
<path d="M188.654 110.517H187.006V118.397H188.654V110.517Z" fill="white"/>
<path d="M171.881 119.689H170.232V127.569H171.881V119.689Z" fill="white"/>
<path d="M188.654 119.689H187.006V127.569H188.654V119.689Z" fill="white"/>
<path d="M171.881 128.856H170.232V136.736H171.881V128.856Z" fill="white"/>
<path d="M188.654 128.856H187.006V136.736H188.654V128.856Z" fill="white"/>
<path d="M171.881 138.028H170.232V145.908H171.881V138.028Z" fill="white"/>
<path d="M188.654 138.028H187.006V145.908H188.654V138.028Z" fill="white"/>
<path d="M171.881 147.194H170.232V155.075H171.881V147.194Z" fill="white"/>
<path d="M188.654 147.194H187.006V155.075H188.654V147.194Z" fill="white"/>
<path d="M171.881 156.366H170.232V164.247H171.881V156.366Z" fill="white"/>
<path d="M188.654 156.366H187.006V164.247H188.654V156.366Z" fill="white"/>
<path d="M171.881 165.539H170.232V173.419H171.881V165.539Z" fill="white"/>
<path d="M188.654 165.539H187.006V173.419H188.654V165.539Z" fill="white"/>
</g>
<defs>
<clipPath id="clip0">
<rect width="365.491" height="183.28" fill="white" transform="translate(0 0.390625)"/>
</clipPath>
</defs>
</svg>
