<svg width="369" height="221" viewBox="0 0 369 221" fill="none" xmlns="http://www.w3.org/2000/svg">
<g clip-path="url(#clip0)">
<path d="M339.338 206.378H39.5859" stroke="#67AAD8" stroke-miterlimit="10"/>
<path d="M302.505 175.689H269.951V220.128H302.505V175.689Z" fill="#222222" stroke="#67AAD8" stroke-miterlimit="10"/>
<path d="M0.417969 196.038L73.5202 105.352L138.866 193.909" stroke="#67AAD8" stroke-miterlimit="10"/>
<path d="M0.417969 196.038L73.5202 105.352L138.866 193.909" stroke="#67AAD8" stroke-miterlimit="10"/>
<path d="M129.401 174.656H96.3301V220.128H129.401V174.656Z" fill="#222222" stroke="#67AAD8" stroke-miterlimit="10"/>
<path d="M165.871 140.665H154.643V179.415H165.871V140.665Z" fill="#222222" stroke="#67AAD8" stroke-miterlimit="10"/>
<path d="M182.861 98.1379C182.52 99.4246 182.313 100.303 182.313 100.303L159.763 123.179L137.197 100.008L112.694 123.179L90.5154 101.197L90.1641 100.928L139.528 38.7859L182.861 98.1379Z" fill="white"/>
<path d="M96.2938 136.542C96.1181 137.219 96.0044 137.678 96.0044 137.678L84.1505 149.703L72.2915 137.523L59.4145 149.703L47.7622 138.149L47.5762 138.009L73.5162 105.352L96.2938 136.542Z" fill="white"/>
<path d="M326.285 120.502C326.099 121.427 325.985 122.057 325.985 122.057L313.604 138.495L301.218 121.846L287.768 138.495L275.594 122.698L275.402 122.507L302.5 77.851L326.285 120.502Z" fill="white"/>
<path d="M275.59 122.698L302.496 77.851L367.842 193.77" stroke="#67AAD8" stroke-miterlimit="10"/>
<path d="M80.1855 114.172L139.527 38.7859L214.025 140.856" stroke="#67AAD8" stroke-miterlimit="10"/>
<path d="M99.4648 97.6264L113.076 110.7L135.636 88.413L159.365 111.294L172.98 97.3267" stroke="#67AAD8" stroke-miterlimit="10"/>
<path d="M53.6777 138.242L60.726 145.011L72.4041 133.472L84.6869 145.321L91.7351 138.087" stroke="#67AAD8" stroke-miterlimit="10"/>
<path d="M282.549 120.668L289.597 129.53L301.275 114.425L313.563 129.933L320.611 120.466" stroke="#67AAD8" stroke-miterlimit="10"/>
<path d="M152.003 77.0398H126.021V219.71H152.003V77.0398Z" fill="#222222" stroke="#67AAD8" stroke-miterlimit="10"/>
<path d="M275.118 101.28H249.281V220.128H275.118V101.28Z" fill="#222222" stroke="#67AAD8" stroke-miterlimit="10"/>
<path d="M275.102 67.718H249.121V97.5128H275.102V67.718Z" stroke="#67AAD8" stroke-miterlimit="10"/>
<path d="M275.102 47.8495H249.121V64.7001H275.102V47.8495Z" stroke="#67AAD8" stroke-miterlimit="10"/>
<path d="M259.467 22.9377H258.145V46.0564H259.467V22.9377Z" fill="#67AAD8"/>
<path d="M264.557 22.7363H263.234V45.8549H264.557V22.7363Z" fill="#67AAD8"/>
<path d="M267.141 40.3052H265.818V46.1133H267.141V40.3052Z" fill="#67AAD8"/>
<path d="M256.805 40.3052H255.482V46.1133H256.805V40.3052Z" fill="#67AAD8"/>
<path d="M182.825 150.865H149.945V220.144H182.825V150.865Z" fill="#222222" stroke="#67AAD8" stroke-miterlimit="10"/>
<path d="M132.438 80.8531H129.105V84.1861H132.438V80.8531Z" fill="white"/>
<path d="M136.649 80.8531H133.316V84.1861H136.649V80.8531Z" fill="white"/>
<path d="M140.856 80.8531H137.523V84.1861H140.856V80.8531Z" fill="white"/>
<path d="M145.067 80.8531H141.734V84.1861H145.067V80.8531Z" fill="white"/>
<path d="M149.274 80.8531H145.941V84.1861H149.274V80.8531Z" fill="white"/>
<path d="M132.438 85.6329H129.105V88.9659H132.438V85.6329Z" fill="white"/>
<path d="M136.649 85.6329H133.316V88.9659H136.649V85.6329Z" fill="white"/>
<path d="M140.856 85.6329H137.523V88.9659H140.856V85.6329Z" fill="white"/>
<path d="M145.067 85.6329H141.734V88.9659H145.067V85.6329Z" fill="white"/>
<path d="M149.274 85.6329H145.941V88.9659H149.274V85.6329Z" fill="white"/>
<path d="M132.438 90.4077H129.105V93.7406H132.438V90.4077Z" fill="white"/>
<path d="M136.649 90.4077H133.316V93.7406H136.649V90.4077Z" fill="white"/>
<path d="M140.856 90.4077H137.523V93.7406H140.856V90.4077Z" fill="white"/>
<path d="M145.067 90.4077H141.734V93.7406H145.067V90.4077Z" fill="white"/>
<path d="M149.274 90.4077H145.941V93.7406H149.274V90.4077Z" fill="white"/>
<path d="M132.438 95.1874H129.105V98.5204H132.438V95.1874Z" fill="white"/>
<path d="M136.649 95.1874H133.316V98.5204H136.649V95.1874Z" fill="white"/>
<path d="M140.856 95.1874H137.523V98.5204H140.856V95.1874Z" fill="white"/>
<path d="M145.067 95.1874H141.734V98.5204H145.067V95.1874Z" fill="white"/>
<path d="M149.274 95.1874H145.941V98.5204H149.274V95.1874Z" fill="white"/>
<path d="M132.438 99.9619H129.105V103.295H132.438V99.9619Z" fill="white"/>
<path d="M136.649 99.9619H133.316V103.295H136.649V99.9619Z" fill="white"/>
<path d="M140.856 99.9619H137.523V103.295H140.856V99.9619Z" fill="white"/>
<path d="M145.067 99.9619H141.734V103.295H145.067V99.9619Z" fill="white"/>
<path d="M149.274 99.9619H145.941V103.295H149.274V99.9619Z" fill="white"/>
<path d="M132.438 104.737H129.105V108.07H132.438V104.737Z" fill="white"/>
<path d="M136.649 104.737H133.316V108.07H136.649V104.737Z" fill="white"/>
<path d="M140.856 104.737H137.523V108.07H140.856V104.737Z" fill="white"/>
<path d="M145.067 104.737H141.734V108.07H145.067V104.737Z" fill="white"/>
<path d="M149.274 104.737H145.941V108.07H149.274V104.737Z" fill="white"/>
<path d="M132.438 109.516H129.105V112.849H132.438V109.516Z" fill="white"/>
<path d="M136.649 109.516H133.316V112.849H136.649V109.516Z" fill="white"/>
<path d="M140.856 109.516H137.523V112.849H140.856V109.516Z" fill="white"/>
<path d="M145.067 109.516H141.734V112.849H145.067V109.516Z" fill="white"/>
<path d="M149.274 109.516H145.941V112.849H149.274V109.516Z" fill="white"/>
<path d="M132.438 114.291H129.105V117.624H132.438V114.291Z" fill="white"/>
<path d="M136.649 114.291H133.316V117.624H136.649V114.291Z" fill="white"/>
<path d="M140.856 114.291H137.523V117.624H140.856V114.291Z" fill="white"/>
<path d="M145.067 114.291H141.734V117.624H145.067V114.291Z" fill="white"/>
<path d="M149.274 114.291H145.941V117.624H149.274V114.291Z" fill="white"/>
<path d="M132.438 119.071H129.105V122.404H132.438V119.071Z" fill="white"/>
<path d="M136.649 119.071H133.316V122.404H136.649V119.071Z" fill="white"/>
<path d="M140.856 119.071H137.523V122.404H140.856V119.071Z" fill="white"/>
<path d="M145.067 119.071H141.734V122.404H145.067V119.071Z" fill="white"/>
<path d="M149.274 119.071H145.941V122.404H149.274V119.071Z" fill="white"/>
<path d="M132.438 123.845H129.105V127.178H132.438V123.845Z" fill="white"/>
<path d="M136.649 123.845H133.316V127.178H136.649V123.845Z" fill="white"/>
<path d="M140.856 123.845H137.523V127.178H140.856V123.845Z" fill="white"/>
<path d="M145.067 123.845H141.734V127.178H145.067V123.845Z" fill="white"/>
<path d="M149.274 123.845H145.941V127.178H149.274V123.845Z" fill="white"/>
<path d="M132.438 128.62H129.105V131.953H132.438V128.62Z" fill="white"/>
<path d="M136.649 128.62H133.316V131.953H136.649V128.62Z" fill="white"/>
<path d="M140.856 128.62H137.523V131.953H140.856V128.62Z" fill="white"/>
<path d="M145.067 128.62H141.734V131.953H145.067V128.62Z" fill="white"/>
<path d="M149.274 128.62H145.941V131.953H149.274V128.62Z" fill="white"/>
<path d="M132.438 133.4H129.105V136.733H132.438V133.4Z" fill="white"/>
<path d="M136.649 133.4H133.316V136.733H136.649V133.4Z" fill="white"/>
<path d="M140.856 133.4H137.523V136.733H140.856V133.4Z" fill="white"/>
<path d="M145.067 133.4H141.734V136.733H145.067V133.4Z" fill="white"/>
<path d="M149.274 133.4H145.941V136.733H149.274V133.4Z" fill="white"/>
<path d="M132.438 138.174H129.105V141.507H132.438V138.174Z" fill="white"/>
<path d="M136.649 138.174H133.316V141.507H136.649V138.174Z" fill="white"/>
<path d="M140.856 138.174H137.523V141.507H140.856V138.174Z" fill="white"/>
<path d="M145.067 138.174H141.734V141.507H145.067V138.174Z" fill="white"/>
<path d="M149.274 138.174H145.941V141.507H149.274V138.174Z" fill="white"/>
<path d="M132.438 142.954H129.105V146.287H132.438V142.954Z" fill="white"/>
<path d="M136.649 142.954H133.316V146.287H136.649V142.954Z" fill="white"/>
<path d="M140.856 142.954H137.523V146.287H140.856V142.954Z" fill="white"/>
<path d="M145.067 142.954H141.734V146.287H145.067V142.954Z" fill="white"/>
<path d="M149.274 142.954H145.941V146.287H149.274V142.954Z" fill="white"/>
<path d="M132.438 147.729H129.105V151.062H132.438V147.729Z" fill="white"/>
<path d="M136.649 147.729H133.316V151.062H136.649V147.729Z" fill="white"/>
<path d="M140.856 147.729H137.523V151.062H140.856V147.729Z" fill="white"/>
<path d="M145.067 147.729H141.734V151.062H145.067V147.729Z" fill="white"/>
<path d="M149.274 147.729H145.941V151.062H149.274V147.729Z" fill="white"/>
<path d="M132.438 152.509H129.105V155.841H132.438V152.509Z" fill="white"/>
<path d="M136.649 152.509H133.316V155.841H136.649V152.509Z" fill="white"/>
<path d="M140.856 152.509H137.523V155.841H140.856V152.509Z" fill="white"/>
<path d="M145.067 152.509H141.734V155.841H145.067V152.509Z" fill="white"/>
<path d="M149.274 152.509H145.941V155.841H149.274V152.509Z" fill="white"/>
<path d="M132.438 157.283H129.105V160.616H132.438V157.283Z" fill="white"/>
<path d="M136.649 157.283H133.316V160.616H136.649V157.283Z" fill="white"/>
<path d="M140.856 157.283H137.523V160.616H140.856V157.283Z" fill="white"/>
<path d="M145.067 157.283H141.734V160.616H145.067V157.283Z" fill="white"/>
<path d="M149.274 157.283H145.941V160.616H149.274V157.283Z" fill="white"/>
<path d="M132.438 162.058H129.105V165.391H132.438V162.058Z" fill="white"/>
<path d="M136.649 162.058H133.316V165.391H136.649V162.058Z" fill="white"/>
<path d="M140.856 162.058H137.523V165.391H140.856V162.058Z" fill="white"/>
<path d="M145.067 162.058H141.734V165.391H145.067V162.058Z" fill="white"/>
<path d="M149.274 162.058H145.941V165.391H149.274V162.058Z" fill="white"/>
<path d="M132.438 166.838H129.105V170.171H132.438V166.838Z" fill="white"/>
<path d="M136.649 166.838H133.316V170.171H136.649V166.838Z" fill="white"/>
<path d="M140.856 166.838H137.523V170.171H140.856V166.838Z" fill="white"/>
<path d="M145.067 166.838H141.734V170.171H145.067V166.838Z" fill="white"/>
<path d="M149.274 166.838H145.941V170.171H149.274V166.838Z" fill="white"/>
<path d="M132.438 171.612H129.105V174.945H132.438V171.612Z" fill="white"/>
<path d="M136.649 171.612H133.316V174.945H136.649V171.612Z" fill="white"/>
<path d="M140.856 171.612H137.523V174.945H140.856V171.612Z" fill="white"/>
<path d="M145.067 171.612H141.734V174.945H145.067V171.612Z" fill="white"/>
<path d="M149.274 171.612H145.941V174.945H149.274V171.612Z" fill="white"/>
<path d="M132.438 176.392H129.105V179.725H132.438V176.392Z" fill="white"/>
<path d="M136.649 176.392H133.316V179.725H136.649V176.392Z" fill="white"/>
<path d="M140.856 176.392H137.523V179.725H140.856V176.392Z" fill="white"/>
<path d="M145.067 176.392H141.734V179.725H145.067V176.392Z" fill="white"/>
<path d="M149.274 176.392H145.941V179.725H149.274V176.392Z" fill="white"/>
<path d="M132.438 181.167H129.105V184.5H132.438V181.167Z" fill="white"/>
<path d="M136.649 181.167H133.316V184.5H136.649V181.167Z" fill="white"/>
<path d="M140.856 181.167H137.523V184.5H140.856V181.167Z" fill="white"/>
<path d="M145.067 181.167H141.734V184.5H145.067V181.167Z" fill="white"/>
<path d="M149.274 181.167H145.941V184.5H149.274V181.167Z" fill="white"/>
<path d="M132.438 185.941H129.105V189.274H132.438V185.941Z" fill="white"/>
<path d="M136.649 185.941H133.316V189.274H136.649V185.941Z" fill="white"/>
<path d="M140.856 185.941H137.523V189.274H140.856V185.941Z" fill="white"/>
<path d="M145.067 185.941H141.734V189.274H145.067V185.941Z" fill="white"/>
<path d="M149.274 185.941H145.941V189.274H149.274V185.941Z" fill="white"/>
<path d="M132.438 190.721H129.105V194.054H132.438V190.721Z" fill="white"/>
<path d="M136.649 190.721H133.316V194.054H136.649V190.721Z" fill="white"/>
<path d="M140.856 190.721H137.523V194.054H140.856V190.721Z" fill="white"/>
<path d="M145.067 190.721H141.734V194.054H145.067V190.721Z" fill="white"/>
<path d="M149.274 190.721H145.941V194.054H149.274V190.721Z" fill="white"/>
<path d="M132.438 195.496H129.105V198.829H132.438V195.496Z" fill="white"/>
<path d="M136.649 195.496H133.316V198.829H136.649V195.496Z" fill="white"/>
<path d="M140.856 195.496H137.523V198.829H140.856V195.496Z" fill="white"/>
<path d="M145.067 195.496H141.734V198.829H145.067V195.496Z" fill="white"/>
<path d="M149.274 195.496H145.941V198.829H149.274V195.496Z" fill="white"/>
<path d="M132.438 200.275H129.105V203.608H132.438V200.275Z" fill="white"/>
<path d="M136.649 200.275H133.316V203.608H136.649V200.275Z" fill="white"/>
<path d="M140.856 200.275H137.523V203.608H140.856V200.275Z" fill="white"/>
<path d="M145.067 200.275H141.734V203.608H145.067V200.275Z" fill="white"/>
<path d="M149.274 200.275H145.941V203.608H149.274V200.275Z" fill="white"/>
<path d="M132.438 205.05H129.105V208.383H132.438V205.05Z" fill="white"/>
<path d="M136.649 205.05H133.316V208.383H136.649V205.05Z" fill="white"/>
<path d="M140.856 205.05H137.523V208.383H140.856V205.05Z" fill="white"/>
<path d="M145.067 205.05H141.734V208.383H145.067V205.05Z" fill="white"/>
<path d="M149.274 205.05H145.941V208.383H149.274V205.05Z" fill="white"/>
<path d="M132.438 209.83H129.105V213.163H132.438V209.83Z" fill="white"/>
<path d="M136.649 209.83H133.316V213.163H136.649V209.83Z" fill="white"/>
<path d="M140.856 209.83H137.523V213.163H140.856V209.83Z" fill="white"/>
<path d="M145.067 209.83H141.734V213.163H145.067V209.83Z" fill="white"/>
<path d="M149.274 209.83H145.941V213.163H149.274V209.83Z" fill="white"/>
<path d="M132.438 214.604H129.105V217.937H132.438V214.604Z" fill="white"/>
<path d="M136.649 214.604H133.316V217.937H136.649V214.604Z" fill="white"/>
<path d="M140.856 214.604H137.523V217.937H140.856V214.604Z" fill="white"/>
<path d="M145.067 214.604H141.734V217.937H145.067V214.604Z" fill="white"/>
<path d="M149.274 214.604H145.941V217.937H149.274V214.604Z" fill="white"/>
<path d="M239.981 105.3H232.938V108.385H239.981V105.3Z" fill="#67AAD8"/>
<path d="M240.756 109.48H232.163C230.644 109.48 229.414 110.71 229.414 112.229V133.038H243.505V112.229C243.511 110.715 242.276 109.48 240.756 109.48Z" fill="#67AAD8"/>
<path d="M246.59 135.022H226.334V157.48H246.59V135.022Z" fill="#67AAD8"/>
<path d="M228.82 154.793H245.382" stroke="white" stroke-miterlimit="10"/>
<path d="M228.82 138.515H245.382" stroke="white" stroke-miterlimit="10"/>
<path d="M246.812 159.242H226.117V220.449H246.812V159.242Z" fill="#67AAD8"/>
<path d="M228.381 217.643H244.942" stroke="white" stroke-miterlimit="10"/>
<path d="M224.19 144.225H208.119V220.185H224.19V144.225Z" fill="#222222" stroke="#67AAD8" stroke-miterlimit="10"/>
<path d="M211.478 147.719L219.338 157.821L211.762 170.45L219.896 180.268L211.199 191.77L220.459 201.593L212.041 213.096" stroke="white" stroke-miterlimit="10"/>
<path d="M170.936 155.795H152.695V182.453H170.936V155.795Z" stroke="white" stroke-miterlimit="10"/>
<path d="M180.757 191.15H159.711V214.718H180.757V191.15Z" stroke="white" stroke-miterlimit="10"/>
<path d="M211.603 50.6657C222.559 50.6657 231.44 41.7842 231.44 30.8283C231.44 19.8724 222.559 10.9909 211.603 10.9909C200.647 10.9909 191.766 19.8724 191.766 30.8283C191.766 41.7842 200.647 50.6657 211.603 50.6657Z" fill="#67AAD8"/>
<path d="M212.254 0V5.04848" stroke="white" stroke-miterlimit="10"/>
<path d="M212.254 56.6082V61.6618" stroke="white" stroke-miterlimit="10"/>
<path d="M181.42 30.8282H186.474" stroke="white" stroke-miterlimit="10"/>
<path d="M238.033 30.8282H243.082" stroke="white" stroke-miterlimit="10"/>
<path d="M190.453 9.02725L194.024 12.603" stroke="white" stroke-miterlimit="10"/>
<path d="M230.479 49.0585L234.049 52.6291" stroke="white" stroke-miterlimit="10"/>
<path d="M190.453 52.6291L194.024 49.0585" stroke="white" stroke-miterlimit="10"/>
<path d="M230.479 12.603L234.049 9.02725" stroke="white" stroke-miterlimit="10"/>
<path d="M165.871 140.665H154.643V179.415H165.871V140.665Z" fill="#222222" stroke="#67AAD8" stroke-miterlimit="10"/>
<path d="M182.861 98.1379C182.52 99.4246 182.313 100.303 182.313 100.303L159.763 123.179L137.197 100.008L112.694 123.179L90.5154 101.197L90.1641 100.928L139.528 38.7859L182.861 98.1379Z" fill="white"/>
<path d="M96.2938 136.542C96.1181 137.219 96.0044 137.678 96.0044 137.678L84.1505 149.703L72.2915 137.523L59.4145 149.703L47.7622 138.149L47.5762 138.009L73.5162 105.352L96.2938 136.542Z" fill="white"/>
<path d="M326.285 120.502C326.099 121.427 325.985 122.057 325.985 122.057L313.604 138.495L301.218 121.846L287.768 138.495L275.594 122.698L275.402 122.507L302.5 77.851L326.285 120.502Z" fill="white"/>
<path d="M275.59 122.698L302.496 77.851L367.842 193.77" stroke="#67AAD8" stroke-miterlimit="10"/>
<path d="M80.1855 114.172L139.527 38.7859L214.025 140.856" stroke="#67AAD8" stroke-miterlimit="10"/>
<path d="M99.4648 97.6264L113.076 110.7L135.636 88.413L159.365 111.294L172.98 97.3267" stroke="#67AAD8" stroke-miterlimit="10"/>
<path d="M53.6777 138.242L60.726 145.011L72.4041 133.472L84.6869 145.321L91.7351 138.087" stroke="#67AAD8" stroke-miterlimit="10"/>
<path d="M282.549 120.668L289.597 129.53L301.275 114.425L313.563 129.933L320.611 120.466" stroke="#67AAD8" stroke-miterlimit="10"/>
<path d="M152.137 76.9933H125.783V220.128H152.137V76.9933Z" fill="#222222" stroke="#67AAD8" stroke-miterlimit="10"/>
<path d="M182.825 150.865H149.945V220.144H182.825V150.865Z" fill="#222222" stroke="#67AAD8" stroke-miterlimit="10"/>
<path d="M205.282 220.185H188.328V106.53C188.328 104.701 189.811 103.223 191.635 103.223H201.975C203.804 103.223 205.282 104.706 205.282 106.53V220.185Z" fill="#222222" stroke="#67AAD8" stroke-miterlimit="10"/>
<path d="M197.975 79.8818H195.773V100.138H197.975V79.8818Z" fill="#67AAD8"/>
<path d="M196.647 115.495C198.351 115.495 199.732 114.114 199.732 112.41C199.732 110.706 198.351 109.325 196.647 109.325C194.944 109.325 193.562 110.706 193.562 112.41C193.562 114.114 194.944 115.495 196.647 115.495Z" fill="white"/>
<path d="M196.647 125.597C198.351 125.597 199.732 124.216 199.732 122.512C199.732 120.809 198.351 119.428 196.647 119.428C194.944 119.428 193.562 120.809 193.562 122.512C193.562 124.216 194.944 125.597 196.647 125.597Z" fill="white"/>
<path d="M196.647 135.699C198.351 135.699 199.732 134.318 199.732 132.614C199.732 130.911 198.351 129.53 196.647 129.53C194.944 129.53 193.562 130.911 193.562 132.614C193.562 134.318 194.944 135.699 196.647 135.699Z" fill="white"/>
<path d="M196.647 145.802C198.351 145.802 199.732 144.42 199.732 142.717C199.732 141.013 198.351 139.632 196.647 139.632C194.944 139.632 193.562 141.013 193.562 142.717C193.562 144.42 194.944 145.802 196.647 145.802Z" fill="white"/>
<path d="M196.647 155.898C198.351 155.898 199.732 154.517 199.732 152.814C199.732 151.11 198.351 149.729 196.647 149.729C194.944 149.729 193.562 151.11 193.562 152.814C193.562 154.517 194.944 155.898 196.647 155.898Z" fill="white"/>
<path d="M196.647 166.001C198.351 166.001 199.732 164.619 199.732 162.916C199.732 161.212 198.351 159.831 196.647 159.831C194.944 159.831 193.562 161.212 193.562 162.916C193.562 164.619 194.944 166.001 196.647 166.001Z" fill="white"/>
<path d="M196.647 176.103C198.351 176.103 199.732 174.722 199.732 173.018C199.732 171.314 198.351 169.933 196.647 169.933C194.944 169.933 193.562 171.314 193.562 173.018C193.562 174.722 194.944 176.103 196.647 176.103Z" fill="white"/>
<path d="M196.647 186.205C198.351 186.205 199.732 184.824 199.732 183.12C199.732 181.416 198.351 180.035 196.647 180.035C194.944 180.035 193.562 181.416 193.562 183.12C193.562 184.824 194.944 186.205 196.647 186.205Z" fill="white"/>
<path d="M73.4221 164.435H71.0762V167.251H73.4221V164.435Z" fill="#67AAD8"/>
<path d="M73.4221 169.618H71.0762V185.218H73.4221V169.618Z" fill="#67AAD8"/>
<path d="M73.4221 187.584H71.0762V203.185H73.4221V187.584Z" fill="#67AAD8"/>
<path d="M74.3575 168.155H69.8516V168.719H74.3575V168.155Z" fill="white"/>
<path d="M74.3575 186.117H69.8516V186.68H74.3575V186.117Z" fill="white"/>
<path d="M74.6419 204.084H70.043V217.938H74.6419V204.084Z" fill="#67AAD8"/>
<path d="M76.4247 218.444H68.1621V212.321C68.1621 211.297 68.9941 210.465 70.0172 210.465H74.5696C75.5927 210.465 76.4247 211.297 76.4247 212.321V218.444Z" fill="#67AAD8"/>
<path d="M74.6528 163.536H70.2192C69.7076 163.536 69.2891 163.122 69.2891 162.606V161.469H75.5777V162.606C75.5829 163.117 75.1643 163.536 74.6528 163.536Z" fill="#67AAD8"/>
<path d="M72.317 148.251L67.3926 151.914H77.1227L72.317 148.251Z" fill="#67AAD8"/>
<path d="M67.584 152.814L69.6768 160.57H74.9319L77.097 152.886L67.584 152.814Z" fill="#67AAD8"/>
<path d="M73.5996 160.518L74.9328 152.886" stroke="white" stroke-width="0.25" stroke-miterlimit="10"/>
<path d="M69.8887 152.86L70.8395 160.518" stroke="white" stroke-width="0.25" stroke-miterlimit="10"/>
<path d="M317.321 164.435H314.975V167.251H317.321V164.435Z" fill="#67AAD8"/>
<path d="M317.321 169.618H314.975V185.218H317.321V169.618Z" fill="#67AAD8"/>
<path d="M317.321 187.584H314.975V203.185H317.321V187.584Z" fill="#67AAD8"/>
<path d="M318.256 168.155H313.75V168.719H318.256V168.155Z" fill="white"/>
<path d="M318.256 186.117H313.75V186.68H318.256V186.117Z" fill="white"/>
<path d="M318.54 204.084H313.941V217.938H318.54V204.084Z" fill="#67AAD8"/>
<path d="M320.323 218.444H312.061V212.321C312.061 211.297 312.892 210.465 313.916 210.465H318.468C319.491 210.465 320.323 211.297 320.323 212.321V218.444Z" fill="#67AAD8"/>
<path d="M318.551 163.536H314.118C313.606 163.536 313.188 163.122 313.188 162.606V161.469H319.476V162.606C319.481 163.117 319.063 163.536 318.551 163.536Z" fill="#67AAD8"/>
<path d="M316.215 148.251L311.291 151.914H321.021L316.215 148.251Z" fill="#67AAD8"/>
<path d="M311.482 152.814L313.575 160.57H318.83L320.996 152.886L311.482 152.814Z" fill="#67AAD8"/>
<path d="M317.498 160.518L318.831 152.886" stroke="white" stroke-width="0.25" stroke-miterlimit="10"/>
<path d="M313.787 152.86L314.738 160.518" stroke="white" stroke-width="0.25" stroke-miterlimit="10"/>
<path d="M132.438 80.8531H129.105V84.1861H132.438V80.8531Z" fill="white"/>
<path d="M136.649 80.8531H133.316V84.1861H136.649V80.8531Z" fill="white"/>
<path d="M140.856 80.8531H137.523V84.1861H140.856V80.8531Z" fill="white"/>
<path d="M145.067 80.8531H141.734V84.1861H145.067V80.8531Z" fill="white"/>
<path d="M149.274 80.8531H145.941V84.1861H149.274V80.8531Z" fill="white"/>
<path d="M132.438 85.6329H129.105V88.9659H132.438V85.6329Z" fill="white"/>
<path d="M136.649 85.6329H133.316V88.9659H136.649V85.6329Z" fill="white"/>
<path d="M140.856 85.6329H137.523V88.9659H140.856V85.6329Z" fill="white"/>
<path d="M145.067 85.6329H141.734V88.9659H145.067V85.6329Z" fill="white"/>
<path d="M149.274 85.6329H145.941V88.9659H149.274V85.6329Z" fill="white"/>
<path d="M132.438 90.4077H129.105V93.7406H132.438V90.4077Z" fill="white"/>
<path d="M136.649 90.4077H133.316V93.7406H136.649V90.4077Z" fill="white"/>
<path d="M140.856 90.4077H137.523V93.7406H140.856V90.4077Z" fill="white"/>
<path d="M145.067 90.4077H141.734V93.7406H145.067V90.4077Z" fill="white"/>
<path d="M149.274 90.4077H145.941V93.7406H149.274V90.4077Z" fill="white"/>
<path d="M132.438 95.1874H129.105V98.5204H132.438V95.1874Z" fill="white"/>
<path d="M136.649 95.1874H133.316V98.5204H136.649V95.1874Z" fill="white"/>
<path d="M140.856 95.1874H137.523V98.5204H140.856V95.1874Z" fill="white"/>
<path d="M145.067 95.1874H141.734V98.5204H145.067V95.1874Z" fill="white"/>
<path d="M149.274 95.1874H145.941V98.5204H149.274V95.1874Z" fill="white"/>
<path d="M132.438 99.9619H129.105V103.295H132.438V99.9619Z" fill="white"/>
<path d="M136.649 99.9619H133.316V103.295H136.649V99.9619Z" fill="white"/>
<path d="M140.856 99.9619H137.523V103.295H140.856V99.9619Z" fill="white"/>
<path d="M145.067 99.9619H141.734V103.295H145.067V99.9619Z" fill="white"/>
<path d="M149.274 99.9619H145.941V103.295H149.274V99.9619Z" fill="white"/>
<path d="M132.438 104.737H129.105V108.07H132.438V104.737Z" fill="white"/>
<path d="M136.649 104.737H133.316V108.07H136.649V104.737Z" fill="white"/>
<path d="M140.856 104.737H137.523V108.07H140.856V104.737Z" fill="white"/>
<path d="M145.067 104.737H141.734V108.07H145.067V104.737Z" fill="white"/>
<path d="M149.274 104.737H145.941V108.07H149.274V104.737Z" fill="white"/>
<path d="M132.438 109.516H129.105V112.849H132.438V109.516Z" fill="white"/>
<path d="M136.649 109.516H133.316V112.849H136.649V109.516Z" fill="white"/>
<path d="M140.856 109.516H137.523V112.849H140.856V109.516Z" fill="white"/>
<path d="M145.067 109.516H141.734V112.849H145.067V109.516Z" fill="white"/>
<path d="M149.274 109.516H145.941V112.849H149.274V109.516Z" fill="white"/>
<path d="M132.438 114.291H129.105V117.624H132.438V114.291Z" fill="white"/>
<path d="M136.649 114.291H133.316V117.624H136.649V114.291Z" fill="white"/>
<path d="M140.856 114.291H137.523V117.624H140.856V114.291Z" fill="white"/>
<path d="M145.067 114.291H141.734V117.624H145.067V114.291Z" fill="white"/>
<path d="M149.274 114.291H145.941V117.624H149.274V114.291Z" fill="white"/>
<path d="M132.438 119.071H129.105V122.404H132.438V119.071Z" fill="white"/>
<path d="M136.649 119.071H133.316V122.404H136.649V119.071Z" fill="white"/>
<path d="M140.856 119.071H137.523V122.404H140.856V119.071Z" fill="white"/>
<path d="M145.067 119.071H141.734V122.404H145.067V119.071Z" fill="white"/>
<path d="M149.274 119.071H145.941V122.404H149.274V119.071Z" fill="white"/>
<path d="M132.438 123.845H129.105V127.178H132.438V123.845Z" fill="white"/>
<path d="M136.649 123.845H133.316V127.178H136.649V123.845Z" fill="white"/>
<path d="M140.856 123.845H137.523V127.178H140.856V123.845Z" fill="white"/>
<path d="M145.067 123.845H141.734V127.178H145.067V123.845Z" fill="white"/>
<path d="M149.274 123.845H145.941V127.178H149.274V123.845Z" fill="white"/>
<path d="M132.438 128.62H129.105V131.953H132.438V128.62Z" fill="white"/>
<path d="M136.649 128.62H133.316V131.953H136.649V128.62Z" fill="white"/>
<path d="M140.856 128.62H137.523V131.953H140.856V128.62Z" fill="white"/>
<path d="M145.067 128.62H141.734V131.953H145.067V128.62Z" fill="white"/>
<path d="M149.274 128.62H145.941V131.953H149.274V128.62Z" fill="white"/>
<path d="M132.438 133.4H129.105V136.733H132.438V133.4Z" fill="white"/>
<path d="M136.649 133.4H133.316V136.733H136.649V133.4Z" fill="white"/>
<path d="M140.856 133.4H137.523V136.733H140.856V133.4Z" fill="white"/>
<path d="M145.067 133.4H141.734V136.733H145.067V133.4Z" fill="white"/>
<path d="M149.274 133.4H145.941V136.733H149.274V133.4Z" fill="white"/>
<path d="M132.438 138.174H129.105V141.507H132.438V138.174Z" fill="white"/>
<path d="M136.649 138.174H133.316V141.507H136.649V138.174Z" fill="white"/>
<path d="M140.856 138.174H137.523V141.507H140.856V138.174Z" fill="white"/>
<path d="M145.067 138.174H141.734V141.507H145.067V138.174Z" fill="white"/>
<path d="M149.274 138.174H145.941V141.507H149.274V138.174Z" fill="white"/>
<path d="M132.438 142.954H129.105V146.287H132.438V142.954Z" fill="white"/>
<path d="M136.649 142.954H133.316V146.287H136.649V142.954Z" fill="white"/>
<path d="M140.856 142.954H137.523V146.287H140.856V142.954Z" fill="white"/>
<path d="M145.067 142.954H141.734V146.287H145.067V142.954Z" fill="white"/>
<path d="M149.274 142.954H145.941V146.287H149.274V142.954Z" fill="white"/>
<path d="M132.438 147.729H129.105V151.062H132.438V147.729Z" fill="white"/>
<path d="M136.649 147.729H133.316V151.062H136.649V147.729Z" fill="white"/>
<path d="M140.856 147.729H137.523V151.062H140.856V147.729Z" fill="white"/>
<path d="M145.067 147.729H141.734V151.062H145.067V147.729Z" fill="white"/>
<path d="M149.274 147.729H145.941V151.062H149.274V147.729Z" fill="white"/>
<path d="M132.438 152.509H129.105V155.841H132.438V152.509Z" fill="white"/>
<path d="M136.649 152.509H133.316V155.841H136.649V152.509Z" fill="white"/>
<path d="M140.856 152.509H137.523V155.841H140.856V152.509Z" fill="white"/>
<path d="M145.067 152.509H141.734V155.841H145.067V152.509Z" fill="white"/>
<path d="M149.274 152.509H145.941V155.841H149.274V152.509Z" fill="white"/>
<path d="M132.438 157.283H129.105V160.616H132.438V157.283Z" fill="white"/>
<path d="M136.649 157.283H133.316V160.616H136.649V157.283Z" fill="white"/>
<path d="M140.856 157.283H137.523V160.616H140.856V157.283Z" fill="white"/>
<path d="M145.067 157.283H141.734V160.616H145.067V157.283Z" fill="white"/>
<path d="M149.274 157.283H145.941V160.616H149.274V157.283Z" fill="white"/>
<path d="M132.438 162.058H129.105V165.391H132.438V162.058Z" fill="white"/>
<path d="M136.649 162.058H133.316V165.391H136.649V162.058Z" fill="white"/>
<path d="M140.856 162.058H137.523V165.391H140.856V162.058Z" fill="white"/>
<path d="M145.067 162.058H141.734V165.391H145.067V162.058Z" fill="white"/>
<path d="M149.274 162.058H145.941V165.391H149.274V162.058Z" fill="white"/>
<path d="M132.438 166.838H129.105V170.171H132.438V166.838Z" fill="white"/>
<path d="M136.649 166.838H133.316V170.171H136.649V166.838Z" fill="white"/>
<path d="M140.856 166.838H137.523V170.171H140.856V166.838Z" fill="white"/>
<path d="M145.067 166.838H141.734V170.171H145.067V166.838Z" fill="white"/>
<path d="M149.274 166.838H145.941V170.171H149.274V166.838Z" fill="white"/>
<path d="M132.438 171.612H129.105V174.945H132.438V171.612Z" fill="white"/>
<path d="M136.649 171.612H133.316V174.945H136.649V171.612Z" fill="white"/>
<path d="M140.856 171.612H137.523V174.945H140.856V171.612Z" fill="white"/>
<path d="M145.067 171.612H141.734V174.945H145.067V171.612Z" fill="white"/>
<path d="M149.274 171.612H145.941V174.945H149.274V171.612Z" fill="white"/>
<path d="M132.438 176.392H129.105V179.725H132.438V176.392Z" fill="white"/>
<path d="M136.649 176.392H133.316V179.725H136.649V176.392Z" fill="white"/>
<path d="M140.856 176.392H137.523V179.725H140.856V176.392Z" fill="white"/>
<path d="M145.067 176.392H141.734V179.725H145.067V176.392Z" fill="white"/>
<path d="M149.274 176.392H145.941V179.725H149.274V176.392Z" fill="white"/>
<path d="M132.438 181.167H129.105V184.5H132.438V181.167Z" fill="white"/>
<path d="M136.649 181.167H133.316V184.5H136.649V181.167Z" fill="white"/>
<path d="M140.856 181.167H137.523V184.5H140.856V181.167Z" fill="white"/>
<path d="M145.067 181.167H141.734V184.5H145.067V181.167Z" fill="white"/>
<path d="M149.274 181.167H145.941V184.5H149.274V181.167Z" fill="white"/>
<path d="M132.438 185.941H129.105V189.274H132.438V185.941Z" fill="white"/>
<path d="M136.649 185.941H133.316V189.274H136.649V185.941Z" fill="white"/>
<path d="M140.856 185.941H137.523V189.274H140.856V185.941Z" fill="white"/>
<path d="M145.067 185.941H141.734V189.274H145.067V185.941Z" fill="white"/>
<path d="M149.274 185.941H145.941V189.274H149.274V185.941Z" fill="white"/>
<path d="M132.438 190.721H129.105V194.054H132.438V190.721Z" fill="white"/>
<path d="M136.649 190.721H133.316V194.054H136.649V190.721Z" fill="white"/>
<path d="M140.856 190.721H137.523V194.054H140.856V190.721Z" fill="white"/>
<path d="M145.067 190.721H141.734V194.054H145.067V190.721Z" fill="white"/>
<path d="M149.274 190.721H145.941V194.054H149.274V190.721Z" fill="white"/>
<path d="M132.438 195.496H129.105V198.829H132.438V195.496Z" fill="white"/>
<path d="M136.649 195.496H133.316V198.829H136.649V195.496Z" fill="white"/>
<path d="M140.856 195.496H137.523V198.829H140.856V195.496Z" fill="white"/>
<path d="M145.067 195.496H141.734V198.829H145.067V195.496Z" fill="white"/>
<path d="M149.274 195.496H145.941V198.829H149.274V195.496Z" fill="white"/>
<path d="M132.438 200.275H129.105V203.608H132.438V200.275Z" fill="white"/>
<path d="M136.649 200.275H133.316V203.608H136.649V200.275Z" fill="white"/>
<path d="M140.856 200.275H137.523V203.608H140.856V200.275Z" fill="white"/>
<path d="M145.067 200.275H141.734V203.608H145.067V200.275Z" fill="white"/>
<path d="M149.274 200.275H145.941V203.608H149.274V200.275Z" fill="white"/>
<path d="M132.438 205.05H129.105V208.383H132.438V205.05Z" fill="white"/>
<path d="M136.649 205.05H133.316V208.383H136.649V205.05Z" fill="white"/>
<path d="M140.856 205.05H137.523V208.383H140.856V205.05Z" fill="white"/>
<path d="M145.067 205.05H141.734V208.383H145.067V205.05Z" fill="white"/>
<path d="M149.274 205.05H145.941V208.383H149.274V205.05Z" fill="white"/>
<path d="M132.438 209.83H129.105V213.163H132.438V209.83Z" fill="white"/>
<path d="M136.649 209.83H133.316V213.163H136.649V209.83Z" fill="white"/>
<path d="M140.856 209.83H137.523V213.163H140.856V209.83Z" fill="white"/>
<path d="M145.067 209.83H141.734V213.163H145.067V209.83Z" fill="white"/>
<path d="M149.274 209.83H145.941V213.163H149.274V209.83Z" fill="white"/>
<path d="M132.438 214.604H129.105V217.937H132.438V214.604Z" fill="white"/>
<path d="M136.649 214.604H133.316V217.937H136.649V214.604Z" fill="white"/>
<path d="M140.856 214.604H137.523V217.937H140.856V214.604Z" fill="white"/>
<path d="M145.067 214.604H141.734V217.937H145.067V214.604Z" fill="white"/>
<path d="M149.274 214.604H145.941V217.937H149.274V214.604Z" fill="white"/>
<path d="M170.936 155.795H152.695V182.453H170.936V155.795Z" stroke="white" stroke-miterlimit="10"/>
<path d="M180.757 191.15H159.711V214.718H180.757V191.15Z" stroke="white" stroke-miterlimit="10"/>
<path d="M211.603 50.6657C222.559 50.6657 231.44 41.7842 231.44 30.8283C231.44 19.8724 222.559 10.9909 211.603 10.9909C200.647 10.9909 191.766 19.8724 191.766 30.8283C191.766 41.7842 200.647 50.6657 211.603 50.6657Z" fill="#67AAD8"/>
<path d="M212.254 0V5.04848" stroke="white" stroke-miterlimit="10"/>
<path d="M212.254 56.6082V61.6618" stroke="white" stroke-miterlimit="10"/>
<path d="M181.42 30.8282H186.474" stroke="white" stroke-miterlimit="10"/>
<path d="M238.033 30.8282H243.082" stroke="white" stroke-miterlimit="10"/>
<path d="M190.453 9.02725L194.024 12.603" stroke="white" stroke-miterlimit="10"/>
<path d="M230.479 49.0585L234.049 52.6291" stroke="white" stroke-miterlimit="10"/>
<path d="M190.453 52.6291L194.024 49.0585" stroke="white" stroke-miterlimit="10"/>
<path d="M230.479 12.603L234.049 9.02725" stroke="white" stroke-miterlimit="10"/>
<path d="M122.641 177.751L100.51 216.832H122.357L122.641 177.751Z" fill="white"/>
<path d="M278.162 216.832L300.294 177.751H278.446L278.162 216.832Z" fill="white"/>
</g>
<defs>
<clipPath id="clip0">
<rect width="367.852" height="220.924" fill="white" transform="translate(0.216797)"/>
</clipPath>
</defs>
</svg>
