<svg width="360" height="180" viewBox="0 0 360 180" fill="none" xmlns="http://www.w3.org/2000/svg">
<g clip-path="url(#clip0)">
<path d="M326.308 97.2141H305.789V148.21H326.308V97.2141Z" fill="#222222" stroke="#67AAD8" stroke-miterlimit="10"/>
<path d="M315.845 116.756C319.093 116.756 321.726 114.121 321.726 110.871C321.726 107.62 319.093 104.986 315.845 104.986C312.598 104.986 309.965 107.62 309.965 110.871C309.965 114.121 312.598 116.756 315.845 116.756Z" fill="white"/>
<path d="M315.715 107.038V111.345H319.887" stroke="#67AAD8" stroke-miterlimit="10"/>
<path d="M326.54 81.6815H305.557V94.6019H326.54V81.6815Z" fill="#222222" stroke="#67AAD8" stroke-miterlimit="10"/>
<path d="M316.048 51.8012C313.312 51.8012 311.09 54.0202 311.09 56.7636V69.8H321.002V56.7636C321.007 54.0252 318.785 51.8012 316.048 51.8012Z" fill="#222222" stroke="#67AAD8" stroke-miterlimit="10"/>
<path d="M324.347 67.2582H307.748V81.3335H324.347V67.2582Z" fill="#222222" stroke="#67AAD8" stroke-miterlimit="10"/>
<path d="M315.111 68.9124H310.42V77.889H315.111V68.9124Z" fill="white"/>
<path d="M321.758 68.9124H317.066V77.889H321.758V68.9124Z" fill="white"/>
<path d="M312.752 69.7646V77.3948" stroke="#67AAD8" stroke-miterlimit="10"/>
<path d="M319.494 69.7646V77.3948" stroke="#67AAD8" stroke-miterlimit="10"/>
<path d="M330.113 78.8524H301.984V84.6217H330.113V78.8524Z" fill="#222222" stroke="#67AAD8" stroke-miterlimit="10"/>
<path d="M309.572 80.0627H307.748V83.3911H309.572V80.0627Z" fill="#78787B"/>
<path d="M312.439 80.0627H310.615V83.3911H312.439V80.0627Z" fill="#78787B"/>
<path d="M306.705 80.0627H304.881V83.3911H306.705V80.0627Z" fill="#78787B"/>
<path d="M315.307 80.0627H313.482V83.3911H315.307V80.0627Z" fill="#78787B"/>
<path d="M318.174 80.0627H316.35V83.3911H318.174V80.0627Z" fill="#78787B"/>
<path d="M321.041 80.0627H319.217V83.3911H321.041V80.0627Z" fill="#78787B"/>
<path d="M323.908 80.0627H322.084V83.3911H323.908V80.0627Z" fill="#78787B"/>
<path d="M326.775 80.0627H324.951V83.3911H326.775V80.0627Z" fill="#78787B"/>
<path d="M267.361 88.9133H242.699V96.0594H267.361V88.9133Z" fill="white"/>
<path d="M245.607 92.045C246.092 92.045 246.484 91.6521 246.484 91.1675C246.484 90.6829 246.092 90.29 245.607 90.29C245.123 90.29 244.73 90.6829 244.73 91.1675C244.73 91.6521 245.123 92.045 245.607 92.045Z" fill="#67AAD8"/>
<path d="M248.338 92.045C248.822 92.045 249.215 91.6521 249.215 91.1675C249.215 90.6829 248.822 90.29 248.338 90.29C247.854 90.29 247.461 90.6829 247.461 91.1675C247.461 91.6521 247.854 92.045 248.338 92.045Z" fill="#67AAD8"/>
<path d="M251.074 92.045C251.558 92.045 251.951 91.6521 251.951 91.1675C251.951 90.6829 251.558 90.29 251.074 90.29C250.59 90.29 250.197 90.6829 250.197 91.1675C250.197 91.6521 250.59 92.045 251.074 92.045Z" fill="#67AAD8"/>
<path d="M253.81 92.045C254.295 92.045 254.687 91.6521 254.687 91.1675C254.687 90.6829 254.295 90.29 253.81 90.29C253.326 90.29 252.934 90.6829 252.934 91.1675C252.934 91.6521 253.326 92.045 253.81 92.045Z" fill="#67AAD8"/>
<path d="M256.541 92.045C257.025 92.045 257.418 91.6521 257.418 91.1675C257.418 90.6829 257.025 90.29 256.541 90.29C256.057 90.29 255.664 90.6829 255.664 91.1675C255.664 91.6521 256.057 92.045 256.541 92.045Z" fill="#67AAD8"/>
<path d="M259.433 92.045C259.918 92.045 260.31 91.6521 260.31 91.1675C260.31 90.6829 259.918 90.29 259.433 90.29C258.949 90.29 258.557 90.6829 258.557 91.1675C258.557 91.6521 258.949 92.045 259.433 92.045Z" fill="#67AAD8"/>
<path d="M262.164 92.045C262.648 92.045 263.041 91.6521 263.041 91.1675C263.041 90.6829 262.648 90.29 262.164 90.29C261.68 90.29 261.287 90.6829 261.287 91.1675C261.287 91.6521 261.68 92.045 262.164 92.045Z" fill="#67AAD8"/>
<path d="M264.9 92.045C265.384 92.045 265.777 91.6521 265.777 91.1675C265.777 90.6829 265.384 90.29 264.9 90.29C264.416 90.29 264.023 90.6829 264.023 91.1675C264.023 91.6521 264.416 92.045 264.9 92.045Z" fill="#67AAD8"/>
<path d="M200.304 102.514H184.088V108.743H200.304V102.514Z" fill="white"/>
<path d="M186.32 104.592H198.439" stroke="#67AAD8" stroke-miterlimit="10"/>
<path d="M145.001 178.544H117.568V115.092H145.43" stroke="#77787B" stroke-miterlimit="10"/>
<path d="M97.0286 157.726H93.4004V164.085H97.0286V157.726Z" fill="#78787B"/>
<path d="M108.411 117.119H58.4883C60.0806 115.46 63.4165 114.315 67.2815 114.315C67.9971 114.315 68.6824 114.356 69.3526 114.431C70.5519 111.143 72.885 108.909 75.5759 108.909C76.9062 108.909 78.1459 109.449 79.2091 110.402C80.6553 106.831 83.0136 104.511 85.6692 104.511C88.4256 104.511 90.8595 107.008 92.2957 110.8C93.0717 110.482 93.9032 110.306 94.7699 110.306C97.4255 110.306 99.7586 111.93 101.144 114.406C101.83 114.078 102.58 113.907 103.362 113.907C105.458 113.912 107.312 115.183 108.411 117.119Z" fill="white"/>
<path d="M58.7705 100.396H20.7051C21.9195 99.1305 24.4643 98.258 27.4121 98.258C27.9564 98.258 28.4804 98.2883 28.9944 98.3488C29.9065 95.8424 31.6903 94.1379 33.7413 94.1379C34.7541 94.1379 35.7015 94.5514 36.5077 95.2725C37.6113 92.5493 39.4103 90.7842 41.4309 90.7842C43.5322 90.7842 45.3866 92.6854 46.4801 95.5802C47.0697 95.3381 47.7046 95.207 48.3647 95.207C50.3905 95.207 52.1693 96.4425 53.2275 98.3337C53.7516 98.0866 54.321 97.9555 54.9206 97.9555C56.518 97.9555 57.929 98.9237 58.7705 100.396Z" fill="white"/>
<path d="M246.125 177.853H271.578V93.8605H239.07V128.194" fill="#222222"/>
<path d="M246.125 177.853H271.578V93.8605H239.07V128.194" stroke="#67AAD8" stroke-miterlimit="10"/>
<path d="M249.497 156.364H243.5V168.886H249.497V156.364Z" fill="white"/>
<path d="M297.78 50.4849H242.174C243.948 48.6392 247.661 47.3633 251.97 47.3633C252.766 47.3633 253.527 47.4087 254.278 47.4944C255.613 43.8331 258.213 41.3469 261.207 41.3469C262.688 41.3469 264.069 41.947 265.253 43.0061C266.865 39.0271 269.491 36.45 272.449 36.45C275.523 36.45 278.229 39.2288 279.826 43.4549C280.693 43.1019 281.615 42.9052 282.582 42.9052C285.54 42.9052 288.141 44.7106 289.683 47.4692C290.449 47.1061 291.28 46.9144 292.152 46.9144C294.49 46.9144 296.551 48.3265 297.78 50.4849Z" fill="white"/>
<path d="M196.646 178.776H176.51" stroke="#77787B" stroke-miterlimit="10"/>
<path d="M177.004 106.554H206.1V112.782H177.004" fill="#222222"/>
<path d="M177.004 106.554H206.1V112.782H177.004" stroke="white" stroke-miterlimit="10"/>
<path d="M169.948 78.7009H153.732V84.9291H169.948V78.7009Z" fill="white"/>
<path d="M55.9141 93.8C55.9141 120.155 81.9663 141.523 108.301 141.523H117.356" stroke="#67AAD8" stroke-miterlimit="10"/>
<path d="M55.9139 93.8C55.9139 120.155 34.5682 141.518 8.23386 141.518H1.10352" stroke="#67AAD8" stroke-miterlimit="10"/>
<path d="M65.852 172.563H46.3809V176.617H65.852V172.563Z" fill="white" stroke="black" stroke-miterlimit="10"/>
<path d="M57.8749 112.385H54.2578V148.039H57.8749V112.385Z" stroke="#67AAD8" stroke-miterlimit="10"/>
<path d="M6.7168 150.106L6.7168 153.723L105.413 153.723L105.413 150.106L6.7168 150.106Z" stroke="#67AAD8" stroke-miterlimit="10"/>
<path d="M359.395 146.011H272.707V178.776H359.395V146.011Z" fill="#222222" stroke="#67AAD8" stroke-miterlimit="10"/>
<path d="M287.37 175.014H277.227V162.784C277.227 159.98 279.499 157.706 282.301 157.706C285.103 157.706 287.375 159.98 287.375 162.784V175.014H287.37Z" stroke="white" stroke-miterlimit="10"/>
<path d="M289.22 148.709H275.846V152.169H289.22V148.709Z" fill="white"/>
<path d="M355.157 148.709H341.783V152.169H355.157V148.709Z" fill="white"/>
<path d="M354.234 175.014H344.09V162.784C344.09 159.98 346.362 157.706 349.164 157.706C351.966 157.706 354.239 159.98 354.239 162.784V175.014H354.234Z" stroke="white" stroke-miterlimit="10"/>
<path d="M338.784 175.014H328.641V158.326C328.641 155.522 330.913 153.248 333.715 153.248C336.517 153.248 338.789 155.522 338.789 158.326V175.014H338.784Z" stroke="white" stroke-miterlimit="10"/>
<path d="M321.032 175.014H310.889V158.326C310.889 155.522 313.161 153.248 315.963 153.248C318.765 153.248 321.037 155.522 321.037 158.326V175.014H321.032Z" stroke="white" stroke-miterlimit="10"/>
<path d="M303.278 175.014H293.135V158.326C293.135 155.522 295.407 153.248 298.209 153.248C301.011 153.248 303.284 155.522 303.284 158.326V175.014H303.278Z" stroke="white" stroke-miterlimit="10"/>
<path d="M96.4579 81.621C96.4579 81.621 89.6803 84.3594 89.5493 90.7843C89.5493 90.7843 89.388 81.6059 82.5449 81.7522" stroke="white" stroke-miterlimit="10"/>
<path d="M169.264 32.8846C169.264 32.8846 162.487 35.6229 162.356 42.0478C162.356 42.0478 162.195 32.8694 155.352 33.0157" stroke="white" stroke-miterlimit="10"/>
<path d="M286.282 62.9868C286.282 62.9868 279.504 65.7252 279.373 72.1501C279.373 72.1501 279.212 62.9717 272.369 63.118" stroke="white" stroke-miterlimit="10"/>
<path d="M249.497 96.8914H243.5V109.413H249.497V96.8914Z" fill="white"/>
<path d="M257.836 96.8914H251.84V109.413H257.836V96.8914Z" fill="white"/>
<path d="M266.18 96.8914H260.184V109.413H266.18V96.8914Z" fill="white"/>
<path d="M249.497 111.758H243.5V124.28H249.497V111.758Z" fill="white"/>
<path d="M257.836 111.758H251.84V124.28H257.836V111.758Z" fill="white"/>
<path d="M266.18 111.758H260.184V124.28H266.18V111.758Z" fill="white"/>
<path d="M249.497 126.625H243.5V139.147H249.497V126.625Z" fill="white"/>
<path d="M257.836 126.625H251.84V139.147H257.836V126.625Z" fill="white"/>
<path d="M266.18 126.625H260.184V139.147H266.18V126.625Z" fill="white"/>
<path d="M249.497 141.497H243.5V154.019H249.497V141.497Z" fill="white"/>
<path d="M257.836 141.497H251.84V154.019H257.836V141.497Z" fill="white"/>
<path d="M266.18 141.497H260.184V154.019H266.18V141.497Z" fill="white"/>
<path d="M257.836 156.364H251.84V168.886H257.836V156.364Z" fill="white"/>
<path d="M266.18 156.364H260.184V168.886H266.18V156.364Z" fill="white"/>
<path d="M154.036 61.6351H69.334C72.04 58.8211 77.6939 56.8795 84.2548 56.8795C85.4642 56.8795 86.6282 56.9501 87.7721 57.0812C89.8079 51.5036 93.7686 47.7162 98.329 47.7162C100.587 47.7162 102.693 48.6341 104.492 50.2478C106.951 44.1861 110.947 40.2575 115.452 40.2575C120.133 40.2575 124.26 44.4937 126.694 50.9287C128.009 50.3891 129.42 50.0915 130.892 50.0915C135.397 50.0915 139.357 52.845 141.711 57.0459C142.875 56.4912 144.145 56.1987 145.475 56.1987C149.027 56.1987 152.167 58.3521 154.036 61.6351Z" fill="white"/>
<path d="M108.064 50.0109C109.234 45.7192 112.237 42.6681 115.749 42.6681C119.15 42.6681 122.068 45.5276 123.313 49.5973" stroke="#67AAD8" stroke-miterlimit="10"/>
<path d="M267.789 44.0853C268.57 41.2309 270.561 39.2036 272.899 39.2036C275.161 39.2036 277.101 41.1049 277.933 43.813" stroke="#67AAD8" stroke-miterlimit="10"/>
<path d="M80.6406 111.648C81.4217 108.793 83.4121 106.766 85.7503 106.766C88.0128 106.766 89.9529 108.667 90.7843 111.375" stroke="#67AAD8" stroke-miterlimit="10"/>
<path d="M244.19 172.412H200.41V178.635H244.19V172.412Z" fill="#222222" stroke="#67AAD8" stroke-miterlimit="10"/>
<path d="M100.46 164.993H81.9062V171.554H100.46V164.993Z" fill="white"/>
<path d="M97.0332 161.867H91.082V168.024H97.0332V161.867Z" fill="white"/>
<path d="M97.7395 177.409H83.6199C79.8305 177.409 76.7617 174.338 76.7617 170.546H104.593C104.598 174.338 101.524 177.409 97.7395 177.409Z" fill="#67AAD8"/>
<path d="M99.8999 169.36H82.6309V169.885H99.8999V169.36Z" fill="#67AAD8"/>
<path d="M96.7314 162.199H91.3496V162.724H96.7314V162.199Z" fill="#67AAD8"/>
<path d="M183.464 176.623C184.725 176.623 185.747 175.6 185.747 174.338C185.747 173.076 184.725 172.054 183.464 172.054C182.204 172.054 181.182 173.076 181.182 174.338C181.182 175.6 182.204 176.623 183.464 176.623Z" stroke="#67AAD8" stroke-miterlimit="10"/>
<path d="M189.875 176.623C191.135 176.623 192.157 175.6 192.157 174.338C192.157 173.076 191.135 172.054 189.875 172.054C188.614 172.054 187.592 173.076 187.592 174.338C187.592 175.6 188.614 176.623 189.875 176.623Z" stroke="#67AAD8" stroke-miterlimit="10"/>
<path d="M196.289 176.623C197.549 176.623 198.571 175.6 198.571 174.338C198.571 173.076 197.549 172.054 196.289 172.054C195.028 172.054 194.006 173.076 194.006 174.338C194.006 175.6 195.028 176.623 196.289 176.623Z" stroke="#67AAD8" stroke-miterlimit="10"/>
<path d="M277.615 150.469H287.583" stroke="#67AAD8" stroke-miterlimit="10"/>
<path d="M343.49 150.469H353.463" stroke="#67AAD8" stroke-miterlimit="10"/>
<path d="M130.483 121.123H123.861V127.75H130.483V121.123Z" stroke="#67AAD8" stroke-miterlimit="10"/>
<path d="M139.655 121.123H133.033V127.75H139.655V121.123Z" stroke="#67AAD8" stroke-miterlimit="10"/>
<path d="M130.483 130.115H123.861V136.742H130.483V130.115Z" stroke="#67AAD8" stroke-miterlimit="10"/>
<path d="M139.655 130.115H133.033V136.742H139.655V130.115Z" stroke="#67AAD8" stroke-miterlimit="10"/>
<path d="M130.483 139.107H123.861V145.734H130.483V139.107Z" stroke="#67AAD8" stroke-miterlimit="10"/>
<path d="M139.655 139.107H133.033V145.734H139.655V139.107Z" stroke="#67AAD8" stroke-miterlimit="10"/>
<path d="M130.483 148.099H123.861V154.726H130.483V148.099Z" stroke="#67AAD8" stroke-miterlimit="10"/>
<path d="M139.655 148.099H133.033V154.726H139.655V148.099Z" stroke="#67AAD8" stroke-miterlimit="10"/>
<path d="M130.483 157.091H123.861V163.717H130.483V157.091Z" stroke="#67AAD8" stroke-miterlimit="10"/>
<path d="M139.655 157.091H133.033V163.717H139.655V157.091Z" stroke="#67AAD8" stroke-miterlimit="10"/>
<path d="M130.483 166.082H123.861V172.709H130.483V166.082Z" stroke="#67AAD8" stroke-miterlimit="10"/>
<path d="M139.655 166.082H133.033V172.709H139.655V166.082Z" stroke="#67AAD8" stroke-miterlimit="10"/>
<path d="M181.82 118.188V167.621" stroke="white" stroke-miterlimit="10"/>
<path d="M200.799 169.083H244.14L222.699 2.72198L200.799 169.083Z" fill="#222222" stroke="#67AAD8" stroke-miterlimit="10"/>
<path d="M206.08 155.643H204.463V165.351H206.08V155.643Z" fill="white"/>
<path d="M209.94 155.643H208.322V165.351H209.94V155.643Z" fill="white"/>
<path d="M213.801 155.643H212.184V165.351H213.801V155.643Z" fill="white"/>
<path d="M217.664 155.643H216.047V165.351H217.664V155.643Z" fill="white"/>
<path d="M221.526 155.643H219.908V165.351H221.526V155.643Z" fill="white"/>
<path d="M225.385 155.643H223.768V165.351H225.385V155.643Z" fill="white"/>
<path d="M229.25 155.643H227.633V165.351H229.25V155.643Z" fill="white"/>
<path d="M233.11 155.643H231.492V165.351H233.11V155.643Z" fill="white"/>
<path d="M236.969 155.643H235.352V165.351H236.969V155.643Z" fill="white"/>
<path d="M240.83 155.643H239.213V165.351H240.83V155.643Z" fill="white"/>
<path d="M206.08 144.377H204.463V154.085H206.08V144.377Z" fill="white"/>
<path d="M209.94 144.377H208.322V154.085H209.94V144.377Z" fill="white"/>
<path d="M213.801 144.377H212.184V154.085H213.801V144.377Z" fill="white"/>
<path d="M217.664 144.377H216.047V154.085H217.664V144.377Z" fill="white"/>
<path d="M221.526 144.377H219.908V154.085H221.526V144.377Z" fill="white"/>
<path d="M225.385 144.377H223.768V154.085H225.385V144.377Z" fill="white"/>
<path d="M229.25 144.377H227.633V154.085H229.25V144.377Z" fill="white"/>
<path d="M233.11 144.377H231.492V154.085H233.11V144.377Z" fill="white"/>
<path d="M236.969 144.377H235.352V154.085H236.969V144.377Z" fill="white"/>
<path d="M240.83 144.377H239.213V154.085H240.83V144.377Z" fill="white"/>
<path d="M206.08 142.809H204.463L205.869 133.171L206.08 133.106V142.809Z" fill="white"/>
<path d="M209.94 133.106H208.322V142.814H209.94V133.106Z" fill="white"/>
<path d="M213.801 133.106H212.184V142.814H213.801V133.106Z" fill="white"/>
<path d="M217.664 133.106H216.047V142.814H217.664V133.106Z" fill="white"/>
<path d="M221.526 133.106H219.908V142.814H221.526V133.106Z" fill="white"/>
<path d="M225.385 133.106H223.768V142.814H225.385V133.106Z" fill="white"/>
<path d="M229.25 133.106H227.633V142.814H229.25V133.106Z" fill="white"/>
<path d="M233.11 133.106H231.492V142.814H233.11V133.106Z" fill="white"/>
<path d="M236.969 133.106H235.352V142.814H236.969V133.106Z" fill="white"/>
<path d="M240.83 142.809H239.213V133.106H239.838L240.83 142.809Z" fill="white"/>
<path d="M209.94 121.835H208.322V131.542H209.94V121.835Z" fill="white"/>
<path d="M213.799 121.835H212.182V131.542H213.799V121.835Z" fill="white"/>
<path d="M217.664 121.835H216.047V131.542H217.664V121.835Z" fill="white"/>
<path d="M221.524 121.835H219.906V131.542H221.524V121.835Z" fill="white"/>
<path d="M225.385 121.835H223.768V131.542H225.385V121.835Z" fill="white"/>
<path d="M229.25 121.835H227.633V131.542H229.25V121.835Z" fill="white"/>
<path d="M233.11 121.835H231.492V131.542H233.11V121.835Z" fill="white"/>
<path d="M236.969 121.835H235.352V131.542H236.969V121.835Z" fill="white"/>
<path d="M209.94 120.266H208.322L208.801 110.674L209.94 110.563V120.266Z" fill="white"/>
<path d="M213.799 110.563H212.182V120.271H213.799V110.563Z" fill="white"/>
<path d="M217.664 110.563H216.047V120.271H217.664V110.563Z" fill="white"/>
<path d="M221.524 110.563H219.906V120.271H221.524V110.563Z" fill="white"/>
<path d="M225.385 110.563H223.768V120.271H225.385V110.563Z" fill="white"/>
<path d="M229.25 110.563H227.633V120.271H229.25V110.563Z" fill="white"/>
<path d="M233.11 110.563H231.492V120.271H233.11V110.563Z" fill="white"/>
<path d="M236.969 120.266H235.352V110.563L236.218 110.674L236.969 120.266Z" fill="white"/>
<path d="M213.799 99.2919H212.182V109H213.799V99.2919Z" fill="white"/>
<path d="M217.664 99.2919H216.047V109H217.664V99.2919Z" fill="white"/>
<path d="M221.524 99.2919H219.906V109H221.524V99.2919Z" fill="white"/>
<path d="M225.383 99.2919H223.766V109H225.383V99.2919Z" fill="white"/>
<path d="M229.248 99.2919H227.631V109H229.248V99.2919Z" fill="white"/>
<path d="M233.11 99.2919H231.492V109H233.11V99.2919Z" fill="white"/>
<path d="M213.799 88.0208H212.182V97.7287H213.799V88.0208Z" fill="white"/>
<path d="M217.664 88.0208H216.047V97.7287H217.664V88.0208Z" fill="white"/>
<path d="M221.524 88.0208H219.906V97.7287H221.524V88.0208Z" fill="white"/>
<path d="M225.383 88.0208H223.766V97.7287H225.383V88.0208Z" fill="white"/>
<path d="M229.248 88.0208H227.631V97.7287H229.248V88.0208Z" fill="white"/>
<path d="M233.11 88.0208H231.492V97.7287H233.11V88.0208Z" fill="white"/>
<path d="M213.799 86.4574H212.182L213.245 76.7747L213.799 76.7494V86.4574Z" fill="white"/>
<path d="M217.664 76.7494H216.047V86.4574H217.664V76.7494Z" fill="white"/>
<path d="M221.524 76.7494H219.906V86.4574H221.524V76.7494Z" fill="white"/>
<path d="M225.383 76.7494H223.766V86.4574H225.383V76.7494Z" fill="white"/>
<path d="M229.248 76.7494H227.631V86.4574H229.248V76.7494Z" fill="white"/>
<path d="M233.11 86.4574H231.492V76.7494L231.966 76.8251L233.11 86.4574Z" fill="white"/>
<path d="M217.664 65.4781H216.047V75.1861H217.664V65.4781Z" fill="white"/>
<path d="M221.524 65.4781H219.906V75.1861H221.524V65.4781Z" fill="white"/>
<path d="M225.385 65.4781H223.768V75.1861H225.385V65.4781Z" fill="white"/>
<path d="M229.248 65.4781H227.631V75.1861H229.248V65.4781Z" fill="white"/>
<path d="M217.664 54.2068H216.047V63.9147H217.664V54.2068Z" fill="white"/>
<path d="M221.524 54.2068H219.906V63.9147H221.524V54.2068Z" fill="white"/>
<path d="M225.385 54.2068H223.768V63.9147H225.385V54.2068Z" fill="white"/>
<path d="M229.248 54.2068H227.631V63.9147H229.248V54.2068Z" fill="white"/>
<path d="M217.66 52.6451L216.375 52.6149L218.038 43.0784L217.66 42.9372V52.6451Z" fill="white"/>
<path d="M221.526 42.9355H219.908V52.6434H221.526V42.9355Z" fill="white"/>
<path d="M225.385 42.9355H223.768V52.6434H225.385V42.9355Z" fill="white"/>
<path d="M228.791 52.7594L227.632 52.6434V42.9355L227.42 42.9304L228.791 52.7594Z" fill="white"/>
<path d="M221.526 31.6642H219.908V41.3721H221.526V31.6642Z" fill="white"/>
<path d="M225.385 31.6642H223.768V41.3721H225.385V31.6642Z" fill="white"/>
<path d="M221.526 30.1008H219.908L221.022 20.287L221.526 20.3929V30.1008Z" fill="white"/>
<path d="M225.385 30.1008H223.768V20.3929L224.735 20.3323L225.385 30.1008Z" fill="white"/>
<path d="M40.4484 147.126H31.6602V147.02C31.6602 144.594 33.6254 142.622 36.0543 142.622C38.4781 142.622 40.4484 144.589 40.4484 147.02V147.126Z" fill="#222222" stroke="white" stroke-miterlimit="10"/>
<path d="M72.3917 147.126H63.6035V147.02C63.6035 144.594 65.5688 142.622 67.9976 142.622C70.4214 142.622 72.3917 144.589 72.3917 147.02V147.126Z" fill="#222222" stroke="white" stroke-miterlimit="10"/>
<path d="M87.0499 147.126H78.2617V147.02C78.2617 144.594 80.227 142.622 82.6558 142.622C85.0796 142.622 87.0499 144.589 87.0499 147.02V147.126Z" fill="#222222" stroke="white" stroke-miterlimit="10"/>
<path d="M178.429 82.342H145V178.791H178.429V82.342Z" fill="#222222" stroke="white" stroke-miterlimit="10"/>
<path d="M150.156 87.6675V174.923H174.394L150.156 87.6675Z" fill="white"/>
<path d="M156.385 81.3233C156.869 81.3233 157.261 80.9304 157.261 80.4458C157.261 79.9612 156.869 79.5683 156.385 79.5683C155.9 79.5683 155.508 79.9612 155.508 80.4458C155.508 80.9304 155.9 81.3233 156.385 81.3233Z" fill="#67AAD8"/>
<path d="M159.121 81.3233C159.605 81.3233 159.998 80.9304 159.998 80.4458C159.998 79.9612 159.605 79.5683 159.121 79.5683C158.637 79.5683 158.244 79.9612 158.244 80.4458C158.244 80.9304 158.637 81.3233 159.121 81.3233Z" fill="#67AAD8"/>
<path d="M161.855 81.3233C162.34 81.3233 162.732 80.9304 162.732 80.4458C162.732 79.9612 162.34 79.5683 161.855 79.5683C161.371 79.5683 160.979 79.9612 160.979 80.4458C160.979 80.9304 161.371 81.3233 161.855 81.3233Z" fill="#67AAD8"/>
<path d="M164.588 81.3233C165.072 81.3233 165.465 80.9304 165.465 80.4458C165.465 79.9612 165.072 79.5683 164.588 79.5683C164.103 79.5683 163.711 79.9612 163.711 80.4458C163.711 80.9304 164.103 81.3233 164.588 81.3233Z" fill="#67AAD8"/>
<path d="M167.324 81.3233C167.808 81.3233 168.201 80.9304 168.201 80.4458C168.201 79.9612 167.808 79.5683 167.324 79.5683C166.84 79.5683 166.447 79.9612 166.447 80.4458C166.447 80.9304 166.84 81.3233 167.324 81.3233Z" fill="#67AAD8"/>
<path d="M330.113 92.4081H301.984V98.1774H330.113V92.4081Z" fill="#222222" stroke="#67AAD8" stroke-miterlimit="10"/>
<path d="M327.789 94.7935H304.428V96.261H327.789V94.7935Z" fill="#78787B"/>
<rect x="4.65039" y="151.656" width="103.863" height="4.6506" fill="#222222"/>
<path d="M57.927 152.826H54.3066V170.928H57.927V152.826Z" stroke="#67AAD8" stroke-miterlimit="10"/>
</g>
<defs>
<clipPath id="clip0">
<rect width="359.646" height="178.273" fill="white" transform="translate(0 0.770264)"/>
</clipPath>
</defs>
</svg>
